<mxfile host="Electron" modified="2024-04-17T07:59:28.000Z" agent="Mozilla/5.0 (Windows NT 10.0; Win64; x64) AppleWebKit/537.36 (KHTML, like Gecko) draw.io/24.2.5 Chrome/120.0.6099.109 Electron/28.1.0 Safari/537.36" etag="qTCy2LubOBt4IUEuVtJo" version="24.2.5" type="device">
  <diagram name="第 1 页" id="W0GCbvE45VuLdL3a8cRp">
    <mxGraphModel dx="1098" dy="988" grid="1" gridSize="10" guides="1" tooltips="1" connect="1" arrows="1" fold="1" page="1" pageScale="1" pageWidth="827" pageHeight="1169" math="0" shadow="0">
      <root>
        <mxCell id="0" />
        <mxCell id="1" parent="0" />
        <mxCell id="adY0Wv2Rg5A9FPhc2j1m-1" value="" style="rounded=1;whiteSpace=wrap;html=1;" vertex="1" parent="1">
          <mxGeometry x="180" y="370" width="150" height="240" as="geometry" />
        </mxCell>
        <mxCell id="adY0Wv2Rg5A9FPhc2j1m-2" value="Schedulers" style="text;html=1;align=center;verticalAlign=middle;whiteSpace=wrap;rounded=0;" vertex="1" parent="1">
          <mxGeometry x="220" y="370" width="60" height="30" as="geometry" />
        </mxCell>
        <mxCell id="adY0Wv2Rg5A9FPhc2j1m-3" value="flight sql" style="rounded=1;whiteSpace=wrap;html=1;" vertex="1" parent="1">
          <mxGeometry x="140" y="405" width="60" height="180" as="geometry" />
        </mxCell>
        <mxCell id="adY0Wv2Rg5A9FPhc2j1m-5" value="" style="rounded=1;whiteSpace=wrap;html=1;" vertex="1" parent="1">
          <mxGeometry x="430" y="370" width="150" height="240" as="geometry" />
        </mxCell>
        <mxCell id="adY0Wv2Rg5A9FPhc2j1m-6" value="Executors" style="text;html=1;align=center;verticalAlign=middle;whiteSpace=wrap;rounded=0;" vertex="1" parent="1">
          <mxGeometry x="475" y="375" width="60" height="30" as="geometry" />
        </mxCell>
        <mxCell id="adY0Wv2Rg5A9FPhc2j1m-8" value="Shared KV" style="rounded=1;whiteSpace=wrap;html=1;" vertex="1" parent="1">
          <mxGeometry x="195" y="260" width="120" height="60" as="geometry" />
        </mxCell>
        <mxCell id="adY0Wv2Rg5A9FPhc2j1m-9" value="" style="rounded=1;whiteSpace=wrap;html=1;" vertex="1" parent="1">
          <mxGeometry x="660" y="370" width="120" height="240" as="geometry" />
        </mxCell>
        <mxCell id="adY0Wv2Rg5A9FPhc2j1m-10" value="FileSystem or ObjectStore" style="text;html=1;align=center;verticalAlign=middle;whiteSpace=wrap;rounded=0;" vertex="1" parent="1">
          <mxGeometry x="690" y="470" width="60" height="30" as="geometry" />
        </mxCell>
      </root>
    </mxGraphModel>
  </diagram>
</mxfile>
